<?xml version="1.0" encoding="UTF-8" standalone="no"?>
<svg width="692px" height="198px" viewBox="0 0 692 198" version="1.1" xmlns="http://www.w3.org/2000/svg" xmlns:xlink="http://www.w3.org/1999/xlink">
    <title>bulgo-logotype</title>
    <desc>Created by Studio60</desc>
    <defs>
        <path d="M23.9042969,32.5976562 C23.9042969,33.9759183 23.6258166,35.2691997 23.0688477,36.4775391 C22.5118787,37.6858784 21.766118,38.7431595 20.831543,39.6494141 C19.896968,40.5556686 18.8113669,41.2683893 17.574707,41.7875977 C16.3380472,42.306806 15.0306058,42.5664062 13.6523438,42.5664062 L10.7353516,42.5664062 C9.35708946,42.5664062 8.04964811,42.306806 6.81298828,41.7875977 C5.57632845,41.2683893 4.49072733,40.5556686 3.55615234,39.6494141 C2.62157736,38.7431595 1.87581659,37.6858784 1.31884766,36.4775391 C0.761878726,35.2691997 0.483398438,33.9759183 0.483398438,32.5976562 L0.483398438,30.9833984 L4.13671875,30.3886719 L4.13671875,32.5976562 C4.13671875,33.5039108 4.32079894,34.3487917 4.68896484,35.1323242 C5.05713075,35.9158568 5.55273126,36.6049775 6.17578125,37.199707 C6.79883124,37.7944366 7.52099199,38.2617171 8.34228516,38.6015625 C9.16357833,38.9414079 10.0273392,39.1113281 10.9335938,39.1113281 L13.4824219,39.1113281 C14.3886764,39.1113281 15.2477173,38.9414079 16.0595703,38.6015625 C16.8714233,38.2617171 17.5888641,37.7944366 18.2119141,37.199707 C18.8349641,36.6049775 19.3305646,35.9158568 19.6987305,35.1323242 C20.0668964,34.3487917 20.2509766,33.5039108 20.2509766,32.5976562 L20.2509766,31.3798828 C20.2509766,29.9827404 19.9772163,28.8216192 19.4296875,27.8964844 C18.8821587,26.9713495 18.155278,26.1831087 17.2490234,25.5317383 C16.3427689,24.8803678 15.3185278,24.3281273 14.1762695,23.875 C13.0340112,23.4218727 11.85873,22.9687523 10.6503906,22.515625 C9.44205125,22.0624977 8.26677003,21.5621772 7.12451172,21.0146484 C5.9822534,20.4671197 4.95801234,19.782719 4.05175781,18.9614258 C3.14550328,18.1401326 2.41862253,17.1347716 1.87109375,15.9453125 C1.32356497,14.7558534 1.04980469,13.2926519 1.04980469,11.5556641 L1.04980469,10.7910156 C1.04980469,9.41275353 1.30940496,8.11947219 1.82861328,6.91113281 C2.34782161,5.70279344 3.06054234,4.64551234 3.96679688,3.73925781 C4.87305141,2.83300328 5.9350525,2.12028254 7.15283203,1.60107422 C8.37061156,1.08186589 9.6686129,0.822265625 11.046875,0.822265625 L13.6523438,0.822265625 C15.0306058,0.822265625 16.3238872,1.08186589 17.5322266,1.60107422 C18.7405659,2.12028254 19.797847,2.83300328 20.7041016,3.73925781 C21.6103561,4.64551234 22.3230768,5.70279344 22.8422852,6.91113281 C23.3614935,8.11947219 23.6210938,9.41275353 23.6210938,10.7910156 L23.6210938,11.8388672 L19.9677734,12.4335938 L19.9677734,10.7910156 C19.9677734,9.88476109 19.7978533,9.03988022 19.4580078,8.25634766 C19.1181624,7.47281509 18.6556019,6.78841438 18.0703125,6.203125 C17.4850231,5.61783562 16.8006224,5.15527514 16.0170898,4.81542969 C15.2335573,4.47558424 14.3886764,4.30566406 13.4824219,4.30566406 L11.2167969,4.30566406 C10.3105423,4.30566406 9.46566147,4.47558424 8.68212891,4.81542969 C7.89859634,5.15527514 7.20947563,5.61783562 6.61474609,6.203125 C6.02001656,6.78841438 5.55273607,7.47281509 5.21289062,8.25634766 C4.87304518,9.03988022 4.703125,9.88476109 4.703125,10.7910156 L4.703125,11.5556641 C4.703125,12.858405 4.97688528,13.9534461 5.52441406,14.8408203 C6.07194284,15.7281945 6.79882359,16.4881153 7.70507812,17.1206055 C8.61133266,17.7530956 9.63557372,18.3006162 10.777832,18.7631836 C11.9200903,19.225751 13.0953716,19.6977515 14.3037109,20.1791992 C15.5120503,20.6606469 16.6873315,21.1892875 17.8295898,21.7651367 C18.9718482,22.340986 19.9960892,23.0489867 20.9023438,23.8891602 C21.8085983,24.7293336 22.535479,25.7535747 23.0830078,26.9619141 C23.6305366,28.1702534 23.9042969,29.642895 23.9042969,31.3798828 L23.9042969,32.5976562 Z M36.2744923,4.87207031 L36.2744923,42 L32.621172,42 L32.621172,4.87207031 L22.9356251,4.87207031 L22.9356251,1.38867188 L45.9600391,1.38867188 L45.9600391,4.87207031 L36.2744923,4.87207031 Z M68.6954689,32.5976562 C68.6954689,33.9759183 68.4358686,35.2691997 67.9166603,36.4775391 C67.397452,37.6858784 66.6847312,38.7431595 65.7784767,39.6494141 C64.8722222,40.5556686 63.8149411,41.2683893 62.6066017,41.7875977 C61.3982623,42.306806 60.104981,42.5664062 58.7267189,42.5664062 L55.838047,42.5664062 C54.4597849,42.5664062 53.1617836,42.306806 51.9440041,41.7875977 C50.7262245,41.2683893 49.6642234,40.5556686 48.7579689,39.6494141 C47.8517144,38.7431595 47.1389936,37.6858784 46.6197853,36.4775391 C46.100577,35.2691997 45.8409767,33.9759183 45.8409767,32.5976562 L45.8409767,1.38867188 L49.494297,1.38867188 L49.494297,32.5976562 C49.494297,33.5039108 49.6642172,34.3487917 50.0040627,35.1323242 C50.3439081,35.9158568 50.8111886,36.6049775 51.4059181,37.199707 C52.0006477,37.7944366 52.6897684,38.2617171 53.4733009,38.6015625 C54.2568335,38.9414079 55.1017144,39.1113281 56.0079689,39.1113281 L58.556797,39.1113281 C59.4630516,39.1113281 60.3079324,38.9414079 61.091465,38.6015625 C61.8749976,38.2617171 62.5593983,37.7944366 63.1446877,37.199707 C63.729977,36.6049775 64.1925375,35.9158568 64.532383,35.1323242 C64.8722284,34.3487917 65.0421486,33.5039108 65.0421486,32.5976562 L65.0421486,1.38867188 L68.6954689,1.38867188 L68.6954689,32.5976562 Z M94.9426174,32.03125 C94.9426174,33.4095121 94.6830171,34.7027934 94.1638088,35.9111328 C93.6446005,37.1194722 92.9318798,38.1767533 92.0256252,39.0830078 C91.1193707,39.9892623 90.0573696,40.7019831 88.8395901,41.2211914 C87.6218105,41.7403997 86.3238092,42 84.9455471,42 L72.0881252,42 L72.0881252,1.38867188 L84.9455471,1.38867188 C86.3238092,1.38867188 87.6218105,1.64827214 88.8395901,2.16748047 C90.0573696,2.68668879 91.1193707,3.39940953 92.0256252,4.30566406 C92.9318798,5.21191859 93.6446005,6.27391969 94.1638088,7.49169922 C94.6830171,8.70947875 94.9426174,10.0074801 94.9426174,11.3857422 L94.9426174,32.03125 Z M91.2892971,11.3857422 C91.2892971,10.4794877 91.1193769,9.63460678 90.7795315,8.85107422 C90.439686,8.06754166 89.9724055,7.37842094 89.377676,6.78369141 C88.7829465,6.18896187 88.0938258,5.72168139 87.3102932,5.38183594 C86.5267606,5.04199049 85.6818798,4.87207031 84.7756252,4.87207031 L75.7414455,4.87207031 L75.7414455,38.5166016 L84.7756252,38.5166016 C85.6818798,38.5166016 86.5267606,38.3466814 87.3102932,38.0068359 C88.0938258,37.6669905 88.7829465,37.20443 89.377676,36.6191406 C89.9724055,36.0338512 90.439686,35.3494505 90.7795315,34.565918 C91.1193769,33.7823854 91.2892971,32.9375045 91.2892971,32.03125 L91.2892971,11.3857422 Z M98.3069534,42 L98.3069534,1.38867188 L101.960274,1.38867188 L101.960274,42 L98.3069534,42 Z M128.179102,32.5976562 C128.179102,33.9759183 127.919502,35.2691997 127.400293,36.4775391 C126.881085,37.6858784 126.168364,38.7431595 125.26211,39.6494141 C124.355855,40.5556686 123.298574,41.2683893 122.090235,41.7875977 C120.881895,42.306806 119.588614,42.5664062 118.210352,42.5664062 L115.32168,42.5664062 C113.943418,42.5664062 112.645417,42.306806 111.427637,41.7875977 C110.209858,41.2683893 109.147856,40.5556686 108.241602,39.6494141 C107.335347,38.7431595 106.622627,37.6858784 106.103418,36.4775391 C105.58421,35.2691997 105.32461,33.9759183 105.32461,32.5976562 L105.32461,10.7910156 C105.32461,9.41275353 105.58421,8.11947219 106.103418,6.91113281 C106.622627,5.70279344 107.335347,4.64551234 108.241602,3.73925781 C109.147856,2.83300328 110.209858,2.12028254 111.427637,1.60107422 C112.645417,1.08186589 113.943418,0.822265625 115.32168,0.822265625 L118.210352,0.822265625 C119.588614,0.822265625 120.881895,1.08186589 122.090235,1.60107422 C123.298574,2.12028254 124.355855,2.83300328 125.26211,3.73925781 C126.168364,4.64551234 126.881085,5.70279344 127.400293,6.91113281 C127.919502,8.11947219 128.179102,9.41275353 128.179102,10.7910156 L128.179102,32.5976562 Z M124.525782,10.7910156 C124.525782,9.88476109 124.355861,9.03988022 124.016016,8.25634766 C123.676171,7.47281509 123.21361,6.78841438 122.628321,6.203125 C122.043031,5.61783562 121.358631,5.15527514 120.575098,4.81542969 C119.791565,4.47558424 118.946685,4.30566406 118.04043,4.30566406 L115.491602,4.30566406 C114.585347,4.30566406 113.740467,4.47558424 112.956934,4.81542969 C112.173401,5.15527514 111.484281,5.61783562 110.889551,6.203125 C110.294822,6.78841438 109.827541,7.47281509 109.487696,8.25634766 C109.14785,9.03988022 108.97793,9.88476109 108.97793,10.7910156 L108.97793,32.5976562 C108.97793,33.5039108 109.14785,34.3487917 109.487696,35.1323242 C109.827541,35.9158568 110.294822,36.6049775 110.889551,37.199707 C111.484281,37.7944366 112.173401,38.2617171 112.956934,38.6015625 C113.740467,38.9414079 114.585347,39.1113281 115.491602,39.1113281 L118.04043,39.1113281 C118.946685,39.1113281 119.791565,38.9414079 120.575098,38.6015625 C121.358631,38.2617171 122.043031,37.7944366 122.628321,37.199707 C123.21361,36.6049775 123.676171,35.9158568 124.016016,35.1323242 C124.355861,34.3487917 124.525782,33.5039108 124.525782,32.5976562 L124.525782,10.7910156 Z M153.265118,32.5976562 C153.265118,33.9759183 153.005517,35.2691997 152.486309,36.4775391 C151.967101,37.6858784 151.25438,38.7431595 150.348125,39.6494141 C149.441871,40.5556686 148.38459,41.2683893 147.17625,41.7875977 C145.967911,42.306806 144.67463,42.5664062 143.296368,42.5664062 L141.540508,42.5664062 C140.162246,42.5664062 138.868965,42.306806 137.660625,41.7875977 C136.452286,41.2683893 135.395005,40.5556686 134.48875,39.6494141 C133.582496,38.7431595 132.869775,37.6858784 132.350567,36.4775391 C131.831359,35.2691997 131.571758,33.9759183 131.571758,32.5976562 L131.571758,10.7910156 C131.571758,9.41275353 131.831359,8.11947219 132.350567,6.91113281 C132.869775,5.70279344 133.582496,4.64551234 134.48875,3.73925781 C135.395005,2.83300328 136.452286,2.12028254 137.660625,1.60107422 C138.868965,1.08186589 140.162246,0.822265625 141.540508,0.822265625 L143.296368,0.822265625 C144.67463,0.822265625 145.967911,1.08186589 147.17625,1.60107422 C148.38459,2.12028254 149.441871,2.83300328 150.348125,3.73925781 C151.25438,4.64551234 151.967101,5.70279344 152.486309,6.91113281 C153.005517,8.11947219 153.265118,9.41275353 153.265118,10.7910156 L153.265118,11.8388672 L149.611797,12.4335938 L149.611797,10.7910156 C149.611797,9.88476109 149.441877,9.03988022 149.102032,8.25634766 C148.762186,7.47281509 148.294906,6.78841438 147.700176,6.203125 C147.105447,5.61783562 146.416326,5.15527514 145.632793,4.81542969 C144.849261,4.47558424 144.00438,4.30566406 143.098125,4.30566406 L141.71043,4.30566406 C140.804176,4.30566406 139.959295,4.47558424 139.175762,4.81542969 C138.39223,5.15527514 137.707829,5.61783562 137.12254,6.203125 C136.53725,6.78841438 136.07469,7.47281509 135.734844,8.25634766 C135.394999,9.03988022 135.225079,9.88476109 135.225079,10.7910156 L135.225079,20.9013672 C136.150213,19.8818308 137.259415,19.06527 138.552715,18.4516602 C139.846016,17.8380503 141.228977,17.53125 142.701641,17.53125 L143.296368,17.53125 C144.67463,17.53125 145.967911,17.7908503 147.17625,18.3100586 C148.38459,18.8292669 149.441871,19.5419877 150.348125,20.4482422 C151.25438,21.3544967 151.967101,22.4117778 152.486309,23.6201172 C153.005517,24.8284566 153.265118,26.1217379 153.265118,27.5 L153.265118,32.5976562 Z M149.611797,27.5 C149.611797,26.5937455 149.441877,25.7488646 149.102032,24.965332 C148.762186,24.1817995 148.294906,23.4973988 147.700176,22.9121094 C147.105447,22.32682 146.416326,21.8642595 145.632793,21.5244141 C144.849261,21.1845686 144.00438,21.0146484 143.098125,21.0146484 L141.71043,21.0146484 C140.804176,21.0146484 139.959295,21.1845686 139.175762,21.5244141 C138.39223,21.8642595 137.707829,22.32682 137.12254,22.9121094 C136.53725,23.4973988 136.07469,24.1817995 135.734844,24.965332 C135.394999,25.7488646 135.225079,26.5937455 135.225079,27.5 L135.225079,32.5976562 C135.225079,33.5039108 135.394999,34.3487917 135.734844,35.1323242 C136.07469,35.9158568 136.53725,36.6049775 137.12254,37.199707 C137.707829,37.7944366 138.39223,38.2617171 139.175762,38.6015625 C139.959295,38.9414079 140.804176,39.1113281 141.71043,39.1113281 L143.098125,39.1113281 C144.00438,39.1113281 144.849261,38.9414079 145.632793,38.6015625 C146.416326,38.2617171 147.105447,37.7944366 147.700176,37.199707 C148.294906,36.6049775 148.762186,35.9158568 149.102032,35.1323242 C149.441877,34.3487917 149.611797,33.5039108 149.611797,32.5976562 L149.611797,27.5 Z M177.16168,32.5976562 C177.16168,33.9759183 176.90208,35.2691997 176.382872,36.4775391 C175.863663,37.6858784 175.150943,38.7431595 174.244688,39.6494141 C173.338434,40.5556686 172.281152,41.2683893 171.072813,41.7875977 C169.864474,42.306806 168.571192,42.5664062 167.19293,42.5664062 L165.465391,42.5664062 C164.087129,42.5664062 162.789128,42.306806 161.571348,41.7875977 C160.353569,41.2683893 159.291568,40.5556686 158.385313,39.6494141 C157.479059,38.7431595 156.766338,37.6858784 156.247129,36.4775391 C155.727921,35.2691997 155.468321,33.9759183 155.468321,32.5976562 L155.468321,10.7910156 C155.468321,9.41275353 155.727921,8.11947219 156.247129,6.91113281 C156.766338,5.70279344 157.479059,4.64551234 158.385313,3.73925781 C159.291568,2.83300328 160.353569,2.12028254 161.571348,1.60107422 C162.789128,1.08186589 164.087129,0.822265625 165.465391,0.822265625 L167.19293,0.822265625 C168.571192,0.822265625 169.864474,1.08186589 171.072813,1.60107422 C172.281152,2.12028254 173.338434,2.83300328 174.244688,3.73925781 C175.150943,4.64551234 175.863663,5.70279344 176.382872,6.91113281 C176.90208,8.11947219 177.16168,9.41275353 177.16168,10.7910156 L177.16168,32.5976562 Z M173.50836,10.7910156 C173.50836,9.88476109 173.33844,9.03988022 172.998594,8.25634766 C172.658749,7.47281509 172.196188,6.78841438 171.610899,6.203125 C171.02561,5.61783562 170.341209,5.15527514 169.557676,4.81542969 C168.774144,4.47558424 167.929263,4.30566406 167.023008,4.30566406 L165.635313,4.30566406 C164.729059,4.30566406 163.884178,4.47558424 163.100645,4.81542969 C162.317113,5.15527514 161.627992,5.61783562 161.033262,6.203125 C160.438533,6.78841438 159.971252,7.47281509 159.631407,8.25634766 C159.291561,9.03988022 159.121641,9.88476109 159.121641,10.7910156 L159.121641,32.5976562 C159.121641,33.5039108 159.291561,34.3487917 159.631407,35.1323242 C159.971252,35.9158568 160.438533,36.6049775 161.033262,37.199707 C161.627992,37.7944366 162.317113,38.2617171 163.100645,38.6015625 C163.884178,38.9414079 164.729059,39.1113281 165.635313,39.1113281 L167.023008,39.1113281 C167.929263,39.1113281 168.774144,38.9414079 169.557676,38.6015625 C170.341209,38.2617171 171.02561,37.7944366 171.610899,37.199707 C172.196188,36.6049775 172.658749,35.9158568 172.998594,35.1323242 C173.33844,34.3487917 173.50836,33.5039108 173.50836,32.5976562 L173.50836,10.7910156 Z M6.80615234,59.7958984 L61.8764648,59.7958984 C71.0548962,59.7958984 78.1009683,62.0688249 83.0148926,66.6147461 C87.9288169,71.1606673 90.3857422,76.7888662 90.3857422,83.4995117 C90.3857422,89.1277951 88.6323418,93.955058 85.1254883,97.9814453 C82.787586,100.665704 79.3673728,102.787102 74.8647461,104.345703 C81.7052751,105.990894 86.7381837,108.815817 89.963623,112.820557 C93.1890624,116.825297 94.8017578,121.858205 94.8017578,127.919434 C94.8017578,132.855005 93.6544711,137.292624 91.3598633,141.232422 C89.0652555,145.17222 85.9264522,148.289377 81.9433594,150.583984 C79.4755736,152.012702 75.7523035,153.051755 70.7734375,153.701172 C64.1493809,154.567062 59.7550564,155 57.590332,155 L6.80615234,155 L6.80615234,59.7958984 Z M36.484375,97.137207 L49.277832,97.137207 C53.8670477,97.137207 57.0599682,96.3470945 58.8566895,94.7668457 C60.6534107,93.1865969 61.5517578,90.902847 61.5517578,87.9155273 C61.5517578,85.1446802 60.6534107,82.9799883 58.8566895,81.4213867 C57.0599682,79.8627852 53.9319884,79.0834961 49.4726562,79.0834961 L36.484375,79.0834961 L36.484375,97.137207 Z M36.484375,134.543457 L51.4858398,134.543457 C56.5512949,134.543457 60.1230365,133.64511 62.2011719,131.848389 C64.2793073,130.051667 65.3183594,127.638036 65.3183594,124.607422 C65.3183594,121.79328 64.2901307,119.531177 62.2336426,117.821045 C60.1771544,116.110913 56.5729424,115.255859 51.4208984,115.255859 L36.484375,115.255859 L36.484375,134.543457 Z M163.375078,59.7958984 L192.728594,59.7958984 L192.728594,116.554688 C192.728594,122.182971 191.851894,127.497289 190.098467,132.497803 C188.34504,137.498316 185.595881,141.870994 181.850908,145.615967 C178.105935,149.36094 174.177019,151.991041 170.064043,153.506348 C164.349171,155.627778 157.487097,156.688477 149.477617,156.688477 C144.845107,156.688477 139.790552,156.363773 134.313799,155.714355 C128.837046,155.064938 124.258723,153.776946 120.578691,151.850342 C116.89866,149.923737 113.532564,147.185402 110.480303,143.635254 C107.428041,140.085106 105.339114,136.426777 104.213457,132.660156 C102.395089,126.598928 101.485918,121.230492 101.485918,116.554688 L101.485918,59.7958984 L130.839434,59.7958984 L130.839434,117.918457 C130.839434,123.113796 132.278954,127.172593 135.158037,130.094971 C138.037121,133.017349 142.030977,134.478516 147.139727,134.478516 C152.205182,134.478516 156.177391,133.038996 159.056475,130.159912 C161.935558,127.280829 163.375078,123.200384 163.375078,117.918457 L163.375078,59.7958984 Z M206.881016,59.7958984 L236.299473,59.7958984 L236.299473,131.556152 L282.213047,131.556152 L282.213047,155 L206.881016,155 L206.881016,59.7958984 Z M335.849844,120.516113 L335.849844,100.708984 L381.308828,100.708984 L381.308828,141.297363 C372.606636,147.228708 364.911157,151.265858 358.222158,153.408936 C351.53316,155.552013 343.599564,156.623535 334.421133,156.623535 C323.121272,156.623535 313.910508,154.696959 306.788565,150.84375 C299.666622,146.990541 294.146657,141.254107 290.228506,133.634277 C286.310355,126.014448 284.351309,117.269092 284.351309,107.397949 C284.351309,97.0072723 286.494354,87.9696836 290.780508,80.2849121 C295.066662,72.6001406 301.344269,66.766296 309.613516,62.7832031 C316.064394,59.7092945 324.744809,58.1723633 335.65502,58.1723633 C346.17558,58.1723633 354.044235,59.1248277 359.261221,61.0297852 C364.478207,62.9347426 368.80759,65.889547 372.249502,69.8942871 C375.691414,73.8990272 378.278221,78.9752297 380.01,85.1230469 L351.630606,90.1884766 C350.461655,86.5950341 348.480961,83.8458754 345.688467,81.940918 C342.895973,80.0359605 339.335054,79.0834961 335.005606,79.0834961 C328.554727,79.0834961 323.413584,81.3239522 319.582022,85.8049316 C315.75046,90.2859111 313.834707,97.375277 313.834707,107.073242 C313.834707,117.37733 315.772107,124.737283 319.646963,129.15332 C323.52182,133.569358 328.922726,135.777344 335.849844,135.777344 C339.140225,135.777344 342.279028,135.301112 345.266348,134.348633 C348.253668,133.396154 351.673881,131.772635 355.52709,129.478027 L355.52709,120.516113 L335.849844,120.516113 Z M389.746407,107.462891 C389.746407,91.9201697 394.07579,79.819542 402.734688,71.1606445 C411.393585,62.5017471 423.450919,58.1723633 438.907051,58.1723633 C454.752833,58.1723633 466.961696,62.4259829 475.534004,70.9333496 C484.106313,79.4407164 488.392403,91.3573452 488.392403,106.683594 C488.392403,117.810277 486.519944,126.934453 482.774971,134.056396 C479.029998,141.17834 473.618268,146.719951 466.539619,150.681396 C459.460971,154.642842 450.639851,156.623535 440.075996,156.623535 C429.338964,156.623535 420.452903,154.913429 413.417549,151.493164 C406.382195,148.0729 400.678232,142.66117 396.305489,135.257812 C391.932745,127.854455 389.746407,118.589574 389.746407,107.462891 Z M419.164864,107.592773 C419.164864,117.20415 420.950734,124.109517 424.52253,128.309082 C428.094325,132.508647 432.954058,134.608398 439.101875,134.608398 C445.42287,134.608398 450.315074,132.551941 453.778633,128.438965 C457.242192,124.325989 458.973946,116.944389 458.973946,106.293945 C458.973946,97.3319864 457.166428,90.7837935 453.551338,86.6491699 C449.936249,82.5145464 445.033221,80.4472656 438.84211,80.4472656 C432.910765,80.4472656 428.148443,82.5470168 424.555,86.746582 C420.961558,90.9461473 419.164864,97.8948083 419.164864,107.592773 Z" id="path-1"></path>
        <filter x="-1.4%" y="-3.2%" width="102.9%" height="109.0%" filterUnits="objectBoundingBox" id="filter-2">
            <feOffset dx="0" dy="2" in="SourceAlpha" result="shadowOffsetOuter1"></feOffset>
            <feGaussianBlur stdDeviation="2" in="shadowOffsetOuter1" result="shadowBlurOuter1"></feGaussianBlur>
            <feColorMatrix values="0 0 0 0 0   0 0 0 0 0   0 0 0 0 0  0 0 0 0.5 0" type="matrix" in="shadowBlurOuter1"></feColorMatrix>
        </filter>
        <filter x="-3.7%" y="-2.6%" width="107.4%" height="107.4%" filterUnits="objectBoundingBox" id="filter-3">
            <feOffset dx="0" dy="2" in="SourceAlpha" result="shadowOffsetOuter1"></feOffset>
            <feGaussianBlur stdDeviation="2" in="shadowOffsetOuter1" result="shadowBlurOuter1"></feGaussianBlur>
            <feColorMatrix values="0 0 0 0 0   0 0 0 0 0   0 0 0 0 0  0 0 0 0.5 0" type="matrix" in="shadowBlurOuter1" result="shadowMatrixOuter1"></feColorMatrix>
            <feMerge>
                <feMergeNode in="shadowMatrixOuter1"></feMergeNode>
                <feMergeNode in="SourceGraphic"></feMergeNode>
            </feMerge>
        </filter>
        <circle id="path-4" cx="95.5026455" cy="95.5026455" r="5.02645503"></circle>
        <filter x="-19.9%" y="-19.9%" width="139.8%" height="139.8%" filterUnits="objectBoundingBox" id="filter-5">
            <feGaussianBlur stdDeviation="1.5" in="SourceAlpha" result="shadowBlurInner1"></feGaussianBlur>
            <feOffset dx="0" dy="1" in="shadowBlurInner1" result="shadowOffsetInner1"></feOffset>
            <feComposite in="shadowOffsetInner1" in2="SourceAlpha" operator="arithmetic" k2="-1" k3="1" result="shadowInnerInner1"></feComposite>
            <feColorMatrix values="0 0 0 0 0   0 0 0 0 0   0 0 0 0 0  0 0 0 0.5 0" type="matrix" in="shadowInnerInner1"></feColorMatrix>
        </filter>
    </defs>
    <g id="Page-1" stroke="none" stroke-width="1" fill="none" fill-rule="evenodd">
        <g id="bulgo-logotype" transform="translate(4.000000, 2.000000)">
            <g>
                <g id="outlined-brand" transform="translate(195.000000, 11.000000)">
                    <g id="STUDIO60-BULGO">
                        <use fill="black" fill-opacity="1" filter="url(#filter-2)" xlink:href="#path-1"></use>
                        <use fill="#000000" fill-rule="evenodd" xlink:href="#path-1"></use>
                    </g>
                </g>
                <g id="disc">
                    <g filter="url(#filter-3)" id="Oval">
                        <circle fill="#000000" cx="95" cy="95" r="95"></circle>
                        <circle fill="#F80909" cx="95.5026455" cy="95.5026455" r="28.1481481"></circle>
                        <circle fill="#F9A807" cx="95.5026455" cy="95.5026455" r="23.1216931"></circle>
                        <circle fill="#F8EA09" cx="95.5026455" cy="95.5026455" r="18.0952381"></circle>
                        <g>
                            <use fill="#FFFFFF" fill-rule="evenodd" xlink:href="#path-4"></use>
                            <use fill="black" fill-opacity="1" filter="url(#filter-5)" xlink:href="#path-4"></use>
                        </g>
                    </g>
                </g>
            </g>
        </g>
    </g>
</svg>
