<?xml version="1.0" encoding="UTF-8" standalone="no"?>
<svg width="512px" height="129px" viewBox="0 0 512 129" version="1.1" xmlns="http://www.w3.org/2000/svg" xmlns:xlink="http://www.w3.org/1999/xlink">
    <!-- Generator: Sketch 50.2 (55047) - http://www.bohemiancoding.com/sketch -->
    <title>bulgo-logotype</title>
    <desc>Created with Sketch.</desc>
    <defs></defs>
    <g id="bulgo-logotype" stroke="none" stroke-width="1" fill="none" fill-rule="evenodd">
        <g id="Group">
            <polygon id="Rectangle" fill="#F8EA09" points="0 0 144 0 105.230769 129 0 129"></polygon>
            <polygon id="Rectangle" fill="#F9A807" points="141.769231 0 247 0 208.230769 129 103 129"></polygon>
            <polygon id="Rectangle" fill="#F80909" points="245.769231 0 351 0 312.230769 129 207 129"></polygon>
        </g>
        <path d="M8,11.7823749 L68.4779332,11.7823749 C78.5576391,11.7823749 86.2955992,14.2776747 91.6920455,19.2683493 C97.0884918,24.2590238 99.7866745,30.4378615 99.7866745,37.8050478 C99.7866745,43.9839782 97.8610992,49.2835198 94.0098908,53.7038315 C91.4424186,56.650706 87.6863581,58.9796526 82.7415967,60.690741 C90.2538303,62.4968899 95.7809447,65.5981911 99.3231055,69.9947378 C102.865266,74.3912844 104.63632,79.9165912 104.63632,86.5708239 C104.63632,91.9892706 103.376376,96.8610465 100.856449,101.186298 C98.3365228,105.511549 94.8895053,108.933675 90.5152933,111.452777 C87.8051837,113.021275 83.7163077,114.161983 78.2485427,114.874937 C70.9740379,115.825541 66.1482134,116.300837 63.7709242,116.300837 L8,116.300837 L8,11.7823749 Z M40.5924711,52.7769966 L54.6421796,52.7769966 C59.6820326,52.7769966 63.1884814,51.9095829 65.1616314,50.1747293 C67.1347814,48.4398758 68.1213416,45.9326936 68.1213416,42.6531074 C68.1213416,39.6111724 67.1347814,37.2346964 65.1616314,35.523608 C63.1884814,33.8125196 59.7533502,32.9569882 54.8561346,32.9569882 L40.5924711,32.9569882 L40.5924711,52.7769966 Z M40.5924711,93.8429134 L57.0670024,93.8429134 C62.629859,93.8429134 66.5523272,92.8566758 68.8345248,90.8841711 C71.1167223,88.9116664 72.257804,86.2618956 72.257804,82.9347792 C72.257804,79.845314 71.1286086,77.3618966 68.8701839,75.4844523 C66.6117593,73.6070081 62.6536322,72.6683 56.9956841,72.6683 L40.5924711,72.6683 L40.5924711,93.8429134 Z M173.453917,11.7823749 L205.689796,11.7823749 L205.689796,74.0941999 C205.689796,80.2731303 204.727008,86.107379 202.801404,91.597121 C200.8758,97.0868631 197.856688,101.887345 193.743978,105.99871 C189.631268,110.110075 185.316553,112.997494 180.799703,114.661052 C174.52366,116.990033 166.987766,118.154506 158.191797,118.154506 C153.104398,118.154506 147.553511,117.798035 141.538969,117.085082 C135.524428,116.372128 130.496537,114.958125 126.455145,112.843029 C122.413754,110.727934 118.717125,107.721692 115.365147,103.824213 C112.013169,99.9267334 109.71912,95.9104889 108.482929,91.7753585 C106.486006,85.1211258 105.48756,79.2274652 105.48756,74.0941999 L105.48756,11.7823749 L137.72344,11.7823749 L137.72344,75.5913948 C137.72344,81.2950229 139.304313,85.7509155 142.466108,88.9592062 C145.627902,92.167497 150.013935,93.7716184 155.624337,93.7716184 C161.187194,93.7716184 165.549454,92.1912618 168.711248,89.0305012 C171.873043,85.8697407 173.453917,81.3900833 173.453917,75.5913948 L173.453917,11.7823749 Z M212.579552,11.7823749 L244.88675,11.7823749 L244.88675,90.5633436 L295.308801,90.5633436 L295.308801,116.300837 L212.579552,116.300837 L212.579552,11.7823749 Z M353.130909,78.4431946 L353.130909,56.6982213 L403.053731,56.6982213 L403.053731,101.257593 C393.497029,107.769235 385.045893,112.201363 377.70007,114.554109 C370.354246,116.906856 361.641612,118.083211 351.561906,118.083211 C339.152457,118.083211 329.037243,115.968148 321.215962,111.737957 C313.394681,107.507766 307.332685,101.210105 303.029791,92.8447834 C298.726898,84.4794623 296.575484,74.878499 296.575484,64.0416057 C296.575484,52.6343496 298.928964,42.7125621 303.635997,34.2759456 C308.343029,25.8393291 315.237065,19.4347261 324.318309,15.0619446 C331.402631,11.687298 340.935417,10 352.916954,10 C364.47058,10 373.111896,11.0456495 378.841163,13.1369798 C384.57043,15.22831 389.324936,18.4721998 393.104826,22.8687465 C396.884716,27.2652931 399.725534,32.8381294 401.627365,39.5874227 L370.46126,45.1484322 C369.177524,41.2034228 367.002337,38.1852982 363.935634,36.0939679 C360.868931,34.0026376 356.958349,32.9569882 352.203771,32.9569882 C345.11945,32.9569882 339.473473,35.4166409 335.265671,40.3360201 C331.057869,45.2553993 328.954,53.0383584 328.954,63.6851307 C328.954,74.9973264 331.081642,83.077345 335.336989,87.9254288 C339.592337,92.7735127 345.523584,95.1975183 353.130909,95.1975183 C356.744389,95.1975183 360.191406,94.6746935 363.472065,93.6290284 C366.752724,92.5833632 370.508785,90.8010062 374.740359,88.2819038 L374.740359,78.4431946 L353.130909,78.4431946 Z M403.667476,64.1129007 C403.667476,47.0495468 408.421983,33.7650456 417.931139,24.2589989 C427.440296,14.7529521 440.681598,10 457.655442,10 C475.057199,10 488.464908,14.6697754 497.878973,24.0094664 C507.293038,33.3491573 512,46.431658 512,63.2573608 C512,75.4726309 509.943676,85.4894774 505.830966,93.3082009 C501.718255,101.126924 495.775122,107.210703 488.001386,111.559719 C480.227651,115.908736 470.540343,118.083211 458.939172,118.083211 C447.147818,118.083211 437.389192,116.205795 429.663003,112.450907 C421.936813,108.696018 415.67275,102.754828 410.870626,94.6271583 C406.068502,86.4994883 403.667476,76.3281708 403.667476,64.1129007 Z" id="STUDIO60-BULGO" stroke="#FFFFFF" stroke-width="5" fill="#000000"></path>
    </g>
</svg>