<?xml version="1.0" encoding="UTF-8" standalone="no"?>
<svg width="226px" height="108px" viewBox="0 0 226 108" version="1.1" xmlns="http://www.w3.org/2000/svg" xmlns:xlink="http://www.w3.org/1999/xlink">
    <title>bulgo-logotype</title>
    <desc>Created by Fabien Dupont</desc>
    <defs>
        <linearGradient x1="100%" y1="50%" x2="0%" y2="50%" id="linearGradient-1">
            <stop stop-color="#FFFFFF" offset="0%"></stop>
            <stop stop-color="#F8EA09" offset="32.4151012%"></stop>
            <stop stop-color="#F9A807" offset="61.0797507%"></stop>
            <stop stop-color="#FA4538" offset="100%"></stop>
        </linearGradient>
        <path d="M107.559077,60.1376527 C108.783077,56.8256527 111.519077,51.7136527 114.183077,48.4016527 C106.911077,55.8176527 97.2630772,66.1856527 92.9430772,67.0496527 L92.3670772,67.0496527 C91.2150772,67.0496527 88.9830772,65.1056527 88.9830772,63.3776527 C88.9830772,60.2816527 92.9430772,53.0096527 97.0470772,47.3216527 C99.5670772,43.7936527 102.591077,40.3376527 104.391077,38.8976527 C104.751077,38.5376527 105.183077,38.4656527 105.399077,38.4656527 C107.127077,38.4656527 109.935077,41.2736527 109.935077,43.1456527 C109.935077,43.4336527 109.647077,43.0736527 108.999077,43.0016527 C107.919077,42.8576527 104.895077,46.6016527 102.447077,49.7696527 C98.7750772,54.5936527 95.1750772,60.8576527 95.1750772,62.9456527 C98.6310772,61.5056527 105.975077,55.0256527 109.431077,51.7136527 C113.175077,48.0416527 118.503077,41.7776527 122.607077,38.6096527 C122.967077,38.3216527 123.327077,38.2496527 123.615077,38.2496527 C125.343077,38.2496527 128.079077,41.0576527 128.079077,42.8576527 C128.079077,43.1456527 127.863077,42.7856527 127.215077,42.7136527 C126.711077,42.7136527 125.775077,43.3616527 124.839077,44.3696527 C123.759077,45.5216527 121.743077,48.1136527 119.367077,51.2816527 C115.767077,56.1056527 113.103077,61.2176527 113.103077,63.2336527 C117.639077,61.8656527 127.863077,52.0736527 132.255077,47.8976527 C132.687077,47.5376527 133.047077,48.1136527 132.831077,48.3296527 C126.567077,55.1696527 114.831077,67.1936527 110.511077,67.1936527 C110.151077,67.1936527 109.719077,67.0496527 109.359077,66.7616527 C108.207077,66.1856527 106.767077,64.5296527 106.767077,63.2336527 C106.767077,62.5136527 107.199077,61.2176527 107.559077,60.1376527 Z M138.067077,39.9056527 C142.531077,32.9216527 147.139077,26.6576527 150.883077,21.7616527 C153.043077,18.9536527 155.059077,16.6496527 156.859077,15.2096527 C157.939077,14.3456527 158.875077,13.7696527 159.523077,13.7696527 C163.555077,13.5536527 166.435077,17.7296527 165.067077,16.9376527 C162.547077,15.7856527 157.867077,22.5536527 154.699077,26.4416527 C151.603077,30.4016527 148.651077,34.6496527 145.051077,39.9056527 C138.787077,49.4096527 133.387077,58.5536527 131.659077,63.1616527 C134.755077,63.5216527 146.707077,51.7856527 150.955077,47.8976527 C151.387077,47.5376527 151.675077,48.1136527 151.459077,48.3296527 C147.931077,52.3616527 135.403077,65.4656527 131.083077,67.0496527 C130.147077,67.4096527 129.427077,67.1216527 128.779077,66.7616527 C128.203077,66.4736527 126.619077,64.9616527 126.187077,63.8816527 C126.115077,63.7376527 125.971077,63.5936527 125.971077,62.8016527 C125.971077,60.6416527 129.283077,53.6576527 138.067077,39.9056527 Z M175.539077,52.5056527 L171.147077,60.6416527 C172.731077,60.0656527 174.315077,59.4896527 175.899077,58.9856527 C177.051077,58.6256527 178.203077,58.8416527 177.195077,59.2016527 C174.891077,60.1376527 172.587077,61.1456527 170.355077,62.0816527 C161.139077,78.1376527 149.259077,96.2096527 135.435077,99.8816527 C134.643077,100.097653 133.851077,100.169653 133.059077,100.169653 C130.395077,100.169653 128.163077,98.9456527 128.163077,95.9216527 C128.163077,95.1296527 128.307077,94.1936527 128.667077,93.1136527 C131.547077,83.9696527 145.731077,72.3056527 162.291077,64.3856527 C163.875077,61.6496527 169.923077,50.7776527 169.923077,50.7776527 C169.995077,50.7056527 168.195077,52.0016527 166.827077,53.2256527 C165.747077,54.2336527 161.787077,57.7616527 157.755077,60.9296527 C153.651077,64.0976527 149.403077,67.1936527 147.891077,67.1936527 C147.747077,67.1936527 147.387077,67.1216527 147.171077,66.9776527 C145.875077,66.1856527 144.075077,63.5936527 144.075077,62.1536527 C144.075077,54.3056527 160.635077,38.2496527 173.811077,38.2496527 C176.619077,38.2496527 180.219077,39.4016527 180.219077,42.7856527 C180.219077,44.0096527 179.499077,45.2336527 178.851077,46.1696527 C178.707077,46.2416527 178.635077,46.1696527 178.707077,46.0976527 C178.995077,45.4496527 179.427077,44.5856527 179.427077,43.5056527 C179.427077,41.3456527 178.059077,40.2656527 175.899077,40.4096527 C171.723077,40.6256527 166.539077,43.6496527 161.787077,47.6096527 C154.947077,53.4416527 149.691077,62.2976527 150.411077,62.8736527 C150.699077,63.1616527 153.579077,61.2896527 156.747077,59.2016527 C160.203077,56.8976527 163.587077,54.2336527 165.963077,52.2176527 C170.931077,48.0416527 172.011077,46.9616527 173.235077,46.3856527 C174.603077,45.7376527 177.627077,49.6256527 177.339077,50.4896527 C177.123077,50.2736527 176.763077,50.0576527 175.539077,52.5056527 Z M136.659077,94.6256527 C145.083077,90.0896527 153.651077,78.4976527 160.995077,66.6176527 C147.891077,73.5296527 137.883077,81.7376527 132.843077,91.0976527 C132.051077,92.5376527 131.691077,93.5456527 131.691077,94.2656527 C131.691077,95.2736527 132.339077,95.6336527 133.275077,95.6336527 C134.283077,95.6336527 135.507077,95.2016527 136.659077,94.6256527 Z M210.851077,39.6896527 C210.131077,39.6176527 209.555077,39.4736527 209.051077,39.4736527 C196.019077,39.4736527 180.971077,63.7376527 185.003077,65.4656527 C189.035077,67.1216527 199.331077,55.6016527 204.155077,48.2576527 C203.795077,47.6096527 203.075077,45.4496527 203.363077,44.7296527 C203.579077,44.0096527 205.739077,41.8496527 206.675077,41.7776527 C207.395077,41.7056527 208.187077,42.2816527 208.331077,42.4976527 C209.699077,44.7296527 211.427077,46.3856527 214.307077,46.1696527 C219.131077,45.7376527 221.795077,42.9296527 222.587077,43.0016527 C222.227077,44.0096527 219.347077,46.3856527 215.819077,47.5376527 C214.235077,48.0416527 212.723077,48.1856527 211.571077,48.1856527 C210.491077,48.1856527 209.771077,48.0416527 209.411077,47.8976527 C207.467077,57.4736527 192.563077,67.8416527 184.931077,67.4096527 C181.619077,67.1936527 179.459077,64.4576527 179.459077,61.7216527 C179.459077,49.9856527 195.227077,38.2496527 206.603077,38.2496527 C209.339077,38.2496527 210.491077,39.0416527 210.995077,39.4736527 C211.355077,39.6896527 211.139077,39.6896527 210.851077,39.6896527 Z M76.8429253,21.773498 C71.4429253,25.661498 66.5469253,31.205498 61.3629253,36.893498 C73.3869253,32.933498 92.2509253,23.789498 93.3309253,18.101498 C94.2669253,12.845498 83.7549253,10.757498 79.9389253,10.541498 C63.9549253,9.53349796 40.4109253,22.061498 40.0509253,29.261498 C39.9069253,30.773498 40.4109253,32.357498 42.4989253,32.789498 C42.4989253,32.861498 41.7789253,33.149498 40.9149253,33.149498 C37.4589253,33.149498 35.2989253,30.989498 35.7309253,27.461498 C36.6669253,19.613498 52.7229253,8.02149796 74.7549253,8.02149796 C76.0509253,8.02149796 77.3469253,8.09349796 78.7149253,8.16549796 C86.4189253,8.66949796 96.6429253,12.269498 96.1389253,20.693498 C95.5629253,30.701498 78.0669253,35.885498 72.9549253,37.037498 C73.3149253,36.965498 74.3229253,37.037498 75.4029253,37.109498 C81.5949253,37.613498 92.1069253,40.349498 91.8189253,47.981498 C91.2429253,67.061498 39.9069253,82.901498 17.8029253,82.901498 C16.3629253,82.901498 14.9949253,82.829498 13.7709253,82.685498 C7.93892526,81.965498 3.54692526,79.733498 3.90692526,74.333498 C4.48292526,64.253498 28.4589253,52.877498 33.7869253,52.157498 C33.8589253,52.229498 33.7869253,52.229498 33.2829253,52.445498 C25.6509253,55.973498 6.85892526,66.773498 6.35492526,74.477498 C6.21092526,77.141498 11.5389253,77.573498 13.4829253,77.717498 C14.3469253,77.789498 15.2829253,77.789498 16.2189253,77.789498 C40.1229253,77.789498 86.4909253,58.061498 87.5709253,45.533498 C87.9309253,40.709498 79.4349253,39.125498 74.1789253,38.765498 C73.2429253,38.693498 72.3789253,38.693498 71.4429253,38.693498 C67.1229253,38.693498 62.8029253,39.341498 58.1949253,40.421498 C54.0909253,45.101498 43.6509253,56.621498 43.6509253,59.141498 C43.6509253,59.357498 43.9389253,59.501498 44.2269253,59.501498 C45.3069253,59.573498 48.1869253,58.565498 48.9789253,58.205498 C47.6109253,59.501498 44.2269253,61.733498 42.7149253,61.733498 C41.4909253,61.733498 40.4109253,61.157498 40.4829253,59.285498 C40.6269253,53.309498 59.3469253,27.173498 71.8029253,18.245498 C73.0989253,17.381498 74.1789253,17.021498 74.7549253,17.093498 C78.8589253,17.453498 81.3789253,21.845498 80.1549253,20.909498 C79.3629253,20.477498 78.1389253,20.909498 76.8429253,21.773498 Z" id="path-2"></path>
        <filter x="-0.9%" y="-2.2%" width="102.7%" height="106.5%" filterUnits="objectBoundingBox" id="filter-3">
            <feMorphology radius="1" operator="dilate" in="SourceAlpha" result="shadowSpreadOuter1"></feMorphology>
            <feOffset dx="2" dy="2" in="shadowSpreadOuter1" result="shadowOffsetOuter1"></feOffset>
            <feComposite in="shadowOffsetOuter1" in2="SourceAlpha" operator="out" result="shadowOffsetOuter1"></feComposite>
            <feColorMatrix values="0 0 0 0 0   0 0 0 0 0   0 0 0 0 0  0 0 0 1 0" type="matrix" in="shadowOffsetOuter1"></feColorMatrix>
        </filter>
    </defs>
    <g id="bulgo-logotype" stroke="none" stroke-width="1" fill="none" fill-rule="evenodd">
        <g id="retro">
            <g id="text">
                <g transform="translate(113.236682, 54.095575) rotate(-4.000000) translate(-113.236682, -54.095575) ">
                    <use fill="black" fill-opacity="1" filter="url(#filter-3)" xlink:href="#path-2"></use>
                    <use fill="url(#linearGradient-1)" fill-rule="evenodd" xlink:href="#path-2"></use>
                </g>
            </g>
        </g>
    </g>
</svg>