<svg width="136px" height="42px" viewBox="0 0 136 42" version="1.1" xmlns="http://www.w3.org/2000/svg" xmlns:xlink="http://www.w3.org/1999/xlink">
          <defs >
            <path stroke="#333333" stroke-width="0.5" d="M32.3026131,19.9438202 L32.3026131,19.96 L25.8262337,19.96 C24.0203362,19.96 22.7205393,19.96 21.9268429,19.96 C20.465035,19.96 19.2519034,20.3558011 18.2874116,21.1797753 C17.3229198,21.9887681 16.8406811,23.0074845 16.8406811,24.2359551 C16.8406811,25.9288474 18.1065576,27.2921297 20.6383486,28.3258427 L24.1195438,29.741573 C26.9527385,30.8801555 29.0248578,32.2696547 30.3359638,33.9101124 C31.6470699,35.55057 32.3026131,37.5617858 32.3026131,39.9438202 C32.3026131,43.1348474 31.232646,45.7715252 29.0926798,47.8539326 C26.9376434,49.9513213 24.2627258,51 21.0678467,51 C18.0387396,51 15.5371265,50.1086231 13.5629324,48.3258427 C11.7145399,46.6307877 10.5269062,44.2789194 10,41.2701731 C10,41.2397955 11.8366395,41.2246067 15.5099186,41.2246067 C15.899308,42.6068432 16.2374048,43.4832852 16.5242088,43.8539326 C17.6092621,45.3520674 19.1916077,46.1011236 21.2712932,46.1011236 C22.9139433,46.1011236 24.2777745,45.5543126 25.3628278,44.4606742 C26.4478811,43.3670357 26.9903996,41.9812818 26.9903996,40.3033708 C26.9903996,39.6292101 26.8962123,39.0112388 26.707835,38.4494382 C26.5194577,37.8876376 26.2255935,37.3707889 25.8262337,36.8988764 C25.4268738,36.4269639 24.9107277,35.9850208 24.2777799,35.5730337 C23.6448322,35.1610466 22.8913343,34.7677921 22.0172636,34.3932584 L18.6490942,33 C13.8718457,30.9924993 11.4832573,28.0561991 11.4832573,24.1910112 C11.4832573,21.5842566 12.4854095,19.4045031 14.4897441,17.6516854 C16.4940786,15.8838863 18.9881567,15 21.9720533,15 C24.6545461,15 28.098066,15 32.3026131,15 C35.0369139,15 37.9895747,15 41.1605953,15 C45.9171262,15 46.0497819,19.96 46.0497819,19.96 C46.0497819,16.4674733 46.0497819,26.8141399 46.0497819,51 L41.1605953,51 L41.1605953,19.9438202 L32.3026131,19.9438202 Z M99.1967465,29.2890922 L99.1967465,15 L104.152121,15 L104.152121,28.541029 C106.134158,20.756697 113.185074,15 121.579285,15 C131.51114,15 139.5625,23.0588745 139.5625,33 C139.5625,42.9411255 131.51114,51 121.579285,51 C113.185074,51 106.134158,45.243303 104.152121,37.458971 L104.152121,51 L99.1967465,51 L99.1967465,36.7811905 C97.9010652,46.2603968 91.4282499,51 79.7783007,51 C73.0803931,51 69.0695819,51 67.7458673,51 C63.9478665,51 60.7524078,49.656502 58.1593952,46.9694656 C55.8409369,44.5572398 54.6817251,41.4885682 54.6817251,37.7633588 L54.6817251,19.96 L46.0497819,19.96 L46.0497819,15 L54.6817251,15 L60.0126272,15 L60.0126272,36.2977099 C60.0126272,39.3358931 60.5083428,41.5572449 61.4997888,42.9618321 C62.9793313,44.9923766 65.0613366,46.04 67.7458673,46.04 C68.1079525,46.04 70.466972,46.04 74.8229259,46.04 L79.7783007,46.04 C89.9479753,46.4479167 95.0328126,42.10125 95.0328126,33 C95.0328126,23.89875 89.6815573,19.5520833 78.9790467,19.96 L78.9790467,41.24 L74.0236719,41.24 L74.0236719,15 L78.9790467,15 C91.1324975,15 97.8717308,19.763031 99.1967468,29.2890931 Z M116.887656,22.52 L109.93321,31.9688281 C108.636757,33.7305557 107.988541,35.3977265 107.988541,36.9703906 C107.988541,38.7235244 108.653928,40.2403061 109.984724,41.5207813 C111.341277,42.8012564 112.921037,43.4414844 114.724051,43.4414844 C116.544236,43.4414844 118.102531,42.7926627 119.398984,41.495 C120.704023,40.1887435 121.356532,38.6246966 121.356532,36.8028125 C121.356532,35.0840539 120.772708,33.6145374 119.605042,32.3942188 C118.42879,31.1567126 117.033622,30.5379688 115.419495,30.5379688 C115.316466,30.5379688 115.174803,30.5465624 114.994501,30.56375 C114.8142,30.5809376 114.595266,30.6067186 114.337693,30.6410938 L119.089898,24.17 L116.887656,22.52 Z M118.38696,37.0298438 C118.38696,38.0353175 118.017777,38.9075744 117.2794,39.6466406 C116.549609,40.377113 115.66958,40.7423438 114.639286,40.7423438 C113.583235,40.7423438 112.690328,40.377113 111.960536,39.6466406 C111.230745,38.9161682 110.865855,38.0310208 110.865855,36.9911719 C110.865855,35.9513229 111.230745,35.0661755 111.960536,34.3357031 C112.690328,33.6052307 113.578942,33.24 114.626407,33.24 C115.665287,33.24 116.553902,33.6095276 117.292279,34.3485938 C118.02207,35.0790662 118.38696,35.9728072 118.38696,37.0298438 Z M121.256157,33.1578125 C121.256157,36.4922042 121.994523,39.104678 123.471277,40.9953125 C124.810658,42.7054773 126.416175,43.5605469 128.287875,43.5605469 C130.159575,43.5605469 131.756506,42.7054773 133.078716,40.9953125 C134.55547,39.104678 135.293836,36.5351725 135.293836,33.2867188 C135.293836,30.0296712 134.55547,27.4558688 133.078716,25.5652344 C131.756506,23.8550696 130.155282,23 128.274996,23 C126.394711,23 124.793487,23.8550696 123.471277,25.5652344 C121.994523,27.4558688 121.256157,29.9867029 121.256157,33.1578125 Z M124.293322,33.1707813 C124.293322,31.0481144 124.679676,29.2778196 125.452397,27.8598438 C126.225117,26.4332741 127.195295,25.72 128.362961,25.72 C129.539213,25.72 130.513684,26.4332741 131.286404,27.8598438 C132.059125,29.2950072 132.445479,31.0996766 132.445479,33.2739063 C132.445479,35.4481359 132.059125,37.2485085 131.286404,38.6750781 C130.513684,40.1102416 129.539213,40.8278125 128.362961,40.8278125 C127.178124,40.8278125 126.203652,40.1102416 125.439518,38.6750781 C124.675384,37.2141333 124.293322,35.379386 124.293322,33.1707813 Z" id="path-1">
            </path>
            <filter x="-3.5%" y="-9.7%" width="108.5%" height="130.6%" filterUnits="objectBoundingBox" id="filter-2">
                <feOffset dx="1" dy="2" in="SourceAlpha" result="shadowOffsetOuter1"></feOffset>
                <feGaussianBlur stdDeviation="1.5" in="shadowOffsetOuter1" result="shadowBlurOuter1"></feGaussianBlur>
                <feColorMatrix values="0 0 0 0 0   0 0 0 0 0   0 0 0 0 0  0 0 0 0.5 0" type="matrix" in="shadowBlurOuter1"></feColorMatrix>
            </filter>
          </defs>
          <g id="Page-1" stroke="none" stroke-width="1" fill="none" fill-rule="evenodd">
            <g id="bg-ffffff/shadow" transform="translate(-8.000000, -14.000000)">          
              <use fill="#ffffff" fill-rule="evenodd" xlink:href="#path-1"></use>
            </g>
          </g>
        </svg>