<?xml version="1.0" encoding="UTF-8" standalone="no"?>
<svg width="32px" height="8px" viewBox="0 0 32 8" version="1.1" xmlns="http://www.w3.org/2000/svg" xmlns:xlink="http://www.w3.org/1999/xlink">
    <!-- Generator: Sketch 50.2 (55047) - http://www.bohemiancoding.com/sketch -->
    <title>y-bottom-tricolor-24x1</title>
    <desc>Created with Sketch.</desc>
    <defs></defs>
    <g id="Page-1" stroke="none" stroke-width="1" fill="none" fill-rule="evenodd">
        <g id="y-bottom-tricolor-24x1">
            <path d="M8,8 C8,8 16,8 16,8 C10,8 8,1.8814668 8,1.03658919e-15 C8,4.25966531e-16 0,4.4408921e-16 0,4.4408921e-16 C0,4.418278 3.581722,8 8,8 Z" id="red" fill="#FA4538"></path>
            <path d="M16,8 C16,8 24,8 24,8 C18,8 16,1.8814668 16,1.03658919e-15 C16,4.25966531e-16 8,4.4408921e-16 8,4.4408921e-16 C8,4.418278 11.581722,8 16,8 Z" id="orange" fill="#F9A807"></path>
            <path d="M24,8 C24,8 32,8 32,8 C26,8 24,1.8814668 24,1.03658919e-15 C24,4.25966531e-16 16,4.4408921e-16 16,4.4408921e-16 C16,4.418278 19.581722,8 24,8 Z" id="yellow" fill="#F8EA09"></path>
        </g>
    </g>
</svg>